<svg id="YouTube_Icon" data-name="YouTube Icon" xmlns="http://www.w3.org/2000/svg" viewBox="0 0 22.7487 16"><title>youtube</title><g id="Lozenge"><path d="M22.5215,3.4517a4.9218,4.9218,0,0,0-.9044-2.258A3.2535,3.2535,0,0,0,19.3379.23C16.1544,0,11.3793,0,11.3793,0h-.01S6.5943,0,3.4109.23a3.254,3.254,0,0,0-2.2794.9636,4.92,4.92,0,0,0-.904,2.258A34.4065,34.4065,0,0,0,0,7.1334V8.8593a34.4065,34.4065,0,0,0,.2275,3.6818,4.92,4.92,0,0,0,.904,2.258,3.8571,3.8571,0,0,0,2.5084.9724C5.46,15.946,11.3744,16,11.3744,16s4.78-.0072,7.9635-.2373a3.2535,3.2535,0,0,0,2.2793-.9636,4.9218,4.9218,0,0,0,.9044-2.258,34.452,34.452,0,0,0,.2272-3.6818V7.1334A34.452,34.452,0,0,0,22.5215,3.4517ZM9.0258,10.9507,9.0247,4.5589l6.1469,3.207Z"/></g></svg>